<mxfile host="app.diagrams.net" agent="Mozilla/5.0 (X11; Linux x86_64) AppleWebKit/537.36 (KHTML, like Gecko) Chrome/136.0.0.0 Safari/537.36" version="26.2.12">
  <diagram name="Page-1" id="2EwQ13ZnxfNRJ1NMO_2o">
    <mxGraphModel dx="1626" dy="750" grid="1" gridSize="10" guides="1" tooltips="1" connect="1" arrows="1" fold="1" page="1" pageScale="1" pageWidth="1100" pageHeight="850" math="0" shadow="0">
      <root>
        <mxCell id="0" />
        <mxCell id="1" parent="0" />
        <mxCell id="FWhbziOUTGveQ3GAkrlC-30" style="edgeStyle=orthogonalEdgeStyle;rounded=0;orthogonalLoop=1;jettySize=auto;html=1;exitX=0.5;exitY=1;exitDx=0;exitDy=0;entryX=0.5;entryY=0;entryDx=0;entryDy=0;" edge="1" parent="1" source="FWhbziOUTGveQ3GAkrlC-2" target="FWhbziOUTGveQ3GAkrlC-25">
          <mxGeometry relative="1" as="geometry" />
        </mxCell>
        <mxCell id="FWhbziOUTGveQ3GAkrlC-2" value="main" style="rounded=0;whiteSpace=wrap;html=1;" vertex="1" parent="1">
          <mxGeometry x="40" y="220" width="120" height="60" as="geometry" />
        </mxCell>
        <mxCell id="FWhbziOUTGveQ3GAkrlC-24" style="edgeStyle=orthogonalEdgeStyle;rounded=0;orthogonalLoop=1;jettySize=auto;html=1;exitX=1;exitY=0.5;exitDx=0;exitDy=0;" edge="1" parent="1" source="FWhbziOUTGveQ3GAkrlC-3" target="FWhbziOUTGveQ3GAkrlC-23">
          <mxGeometry relative="1" as="geometry" />
        </mxCell>
        <mxCell id="FWhbziOUTGveQ3GAkrlC-4" value="connector" style="rounded=0;whiteSpace=wrap;html=1;" vertex="1" parent="1">
          <mxGeometry x="280" y="220" width="120" height="60" as="geometry" />
        </mxCell>
        <mxCell id="FWhbziOUTGveQ3GAkrlC-5" value="repository" style="rounded=0;whiteSpace=wrap;html=1;" vertex="1" parent="1">
          <mxGeometry x="760" y="220" width="120" height="60" as="geometry" />
        </mxCell>
        <mxCell id="FWhbziOUTGveQ3GAkrlC-14" style="edgeStyle=orthogonalEdgeStyle;rounded=0;orthogonalLoop=1;jettySize=auto;html=1;exitX=0;exitY=0.5;exitDx=0;exitDy=0;entryX=0.5;entryY=0;entryDx=0;entryDy=0;" edge="1" parent="1" source="FWhbziOUTGveQ3GAkrlC-12" target="FWhbziOUTGveQ3GAkrlC-2">
          <mxGeometry relative="1" as="geometry" />
        </mxCell>
        <mxCell id="FWhbziOUTGveQ3GAkrlC-18" style="edgeStyle=orthogonalEdgeStyle;rounded=0;orthogonalLoop=1;jettySize=auto;html=1;exitX=1;exitY=0.5;exitDx=0;exitDy=0;entryX=0.5;entryY=0;entryDx=0;entryDy=0;" edge="1" parent="1" source="FWhbziOUTGveQ3GAkrlC-12" target="FWhbziOUTGveQ3GAkrlC-5">
          <mxGeometry relative="1" as="geometry" />
        </mxCell>
        <mxCell id="FWhbziOUTGveQ3GAkrlC-28" style="edgeStyle=orthogonalEdgeStyle;rounded=0;orthogonalLoop=1;jettySize=auto;html=1;exitX=0.75;exitY=1;exitDx=0;exitDy=0;" edge="1" parent="1" source="FWhbziOUTGveQ3GAkrlC-12" target="FWhbziOUTGveQ3GAkrlC-3">
          <mxGeometry relative="1" as="geometry" />
        </mxCell>
        <mxCell id="FWhbziOUTGveQ3GAkrlC-29" style="edgeStyle=orthogonalEdgeStyle;rounded=0;orthogonalLoop=1;jettySize=auto;html=1;exitX=0.25;exitY=1;exitDx=0;exitDy=0;" edge="1" parent="1" source="FWhbziOUTGveQ3GAkrlC-12" target="FWhbziOUTGveQ3GAkrlC-4">
          <mxGeometry relative="1" as="geometry" />
        </mxCell>
        <mxCell id="FWhbziOUTGveQ3GAkrlC-12" value="Backend" style="rounded=0;whiteSpace=wrap;html=1;" vertex="1" parent="1">
          <mxGeometry x="400" y="120" width="120" height="60" as="geometry" />
        </mxCell>
        <mxCell id="FWhbziOUTGveQ3GAkrlC-23" value="routes" style="rounded=0;whiteSpace=wrap;html=1;" vertex="1" parent="1">
          <mxGeometry x="630" y="340" width="120" height="60" as="geometry" />
        </mxCell>
        <mxCell id="FWhbziOUTGveQ3GAkrlC-25" value="- Código de ejecución principal del servidor&lt;div&gt;- Lo principal que hace es instanciar el conector y el repositorio, y empezar la ejecución&lt;/div&gt;" style="rounded=0;whiteSpace=wrap;html=1;" vertex="1" parent="1">
          <mxGeometry x="20" y="320" width="160" height="120" as="geometry" />
        </mxCell>
        <mxCell id="FWhbziOUTGveQ3GAkrlC-3" value="model" style="rounded=0;whiteSpace=wrap;html=1;" vertex="1" parent="1">
          <mxGeometry x="520" y="220" width="120" height="60" as="geometry" />
        </mxCell>
      </root>
    </mxGraphModel>
  </diagram>
</mxfile>
